HIERARCHY
ROOT Hips
{
	OFFSET 0.00000 0.00000 0.00000
	CHANNELS 6 Xposition Yposition Zposition Zrotation Yrotation Xrotation 
	JOINT LHipJoint
	{
		OFFSET 0 0 0
		CHANNELS 3 Zrotation Yrotation Xrotation
		JOINT LeftUpLeg
		{
			OFFSET 1.88772 -1.62769 0.85636
			CHANNELS 3 Zrotation Yrotation Xrotation
			JOINT LeftLeg
			{
				OFFSET 2.39836 -6.58946 0.00000
				CHANNELS 3 Zrotation Yrotation Xrotation
				JOINT LeftFoot
				{
					OFFSET 2.78523 -7.65237 0.00000
					CHANNELS 3 Zrotation Yrotation Xrotation
					JOINT LeftToeBase
					{
						OFFSET 0.19551 -0.53715 1.90694
						CHANNELS 3 Zrotation Yrotation Xrotation
						End Site
						{
							OFFSET 0.00000 -0.00000 0.99735
						}
					}
				}
			}
		}
	}
	JOINT RHipJoint
	{
		OFFSET 0 0 0
		CHANNELS 3 Zrotation Yrotation Xrotation
		JOINT RightUpLeg
		{
			OFFSET -1.74282 -1.62769 0.85636
			CHANNELS 3 Zrotation Yrotation Xrotation
			JOINT RightLeg
			{
				OFFSET -2.36062 -6.48575 0.00000
				CHANNELS 3 Zrotation Yrotation Xrotation
				JOINT RightFoot
				{
					OFFSET -2.76258 -7.59014 0.00000
					CHANNELS 3 Zrotation Yrotation Xrotation
					JOINT RightToeBase
					{
						OFFSET -0.19308 -0.53048 2.03952
						CHANNELS 3 Zrotation Yrotation Xrotation
						End Site
						{
							OFFSET -0.00000 -0.00000 1.06031
						}
					}
				}
			}
		}
	}
	JOINT LowerBack
	{
		OFFSET 0 0 0
		CHANNELS 3 Zrotation Yrotation Xrotation
		JOINT Spine
		{
			OFFSET -0.08299 2.03160 -0.30721
			CHANNELS 3 Zrotation Yrotation Xrotation
			JOINT Spine1
			{
				OFFSET -0.01030 2.00603 0.13891
				CHANNELS 3 Zrotation Yrotation Xrotation
				JOINT Neck
				{
					OFFSET 0 0 0
					CHANNELS 3 Zrotation Yrotation Xrotation
					JOINT Neck1
					{
						OFFSET 0.04282 1.69578 0.19991
						CHANNELS 3 Zrotation Yrotation Xrotation
						JOINT Head
						{
							OFFSET -0.08665 1.66622 -0.03785
							CHANNELS 3 Zrotation Yrotation Xrotation
							End Site
							{
								OFFSET -0.03699 1.83329 -0.04094
							}
						}
					}
				}
				JOINT LeftShoulder
				{
					OFFSET 0 0 0
					CHANNELS 3 Zrotation Yrotation Xrotation
					JOINT LeftArm
					{
						OFFSET 3.04219 1.50803 -0.05347
						CHANNELS 3 Zrotation Yrotation Xrotation
						JOINT LeftForeArm
						{
							OFFSET 5.79199 -0.00000 0.00000
							CHANNELS 3 Zrotation Yrotation Xrotation
							JOINT LeftHand
							{
								OFFSET 3.49908 -0.00000 0.00000
								CHANNELS 3 Zrotation Yrotation Xrotation
								JOINT LeftFingerBase
								{
									OFFSET 0 0 0
									CHANNELS 3 Zrotation Yrotation Xrotation
									JOINT LeftHandIndex1
									{
										OFFSET 0.59386 -0.00000 0.00000
										CHANNELS 3 Zrotation Yrotation Xrotation
										End Site
										{
											OFFSET 0.47879 -0.00000 0.00000
										}
									}
								}
								JOINT LThumb
								{
									OFFSET 0 0 0
									CHANNELS 3 Zrotation Yrotation Xrotation
									End Site
									{
										OFFSET 0.48610 -0.00000 0.48610
									}
								}
							}
						}
					}
				}
				JOINT RightShoulder
				{
					OFFSET 0 0 0
					CHANNELS 3 Zrotation Yrotation Xrotation
					JOINT RightArm
					{
						OFFSET -3.30316 1.18853 0.11175
						CHANNELS 3 Zrotation Yrotation Xrotation
						JOINT RightForeArm
						{
							OFFSET -5.73799 -0.00000 0.00000
							CHANNELS 3 Zrotation Yrotation Xrotation
							JOINT RightHand
							{
								OFFSET -3.57916 -0.00000 -0.00000
								CHANNELS 3 Zrotation Yrotation Xrotation
								JOINT RightFingerBase
								{
									OFFSET 0 0 0
									CHANNELS 3 Zrotation Yrotation Xrotation
									JOINT RightHandIndex1
									{
										OFFSET -0.61558 -0.00000 0.00000
										CHANNELS 3 Zrotation Yrotation Xrotation
										End Site
										{
											OFFSET -0.49629 -0.00000 0.00000
										}
									}
								}
								JOINT RThumb
								{
									OFFSET 0 0 0
									CHANNELS 3 Zrotation Yrotation Xrotation
									End Site
									{
										OFFSET -0.50387 -0.00000 0.50387
									}
								}
							}
						}
					}
				}
			}
		}
	}
}
MOTION
Frames: 12
Frame Time: 0.0240964
0.00 0.00 0.00 0 0 0 0 0 0 -21 0 0 0 0 0 0 0 0 0 0 0 0 0 0 21 0 0 0 0 0 0 0 0 0 0 0 0 0 0 0 0 0 0 0 0 0 0 -16 0 0 21 0 0 11 0 0 0 -8 0 0 0 0 0 0 0 0 0 0 0 0 0 0 0 0 0 0 0 0 8 0 0 0 0 0 0 0 0 0 0 0 0 0 0 0 0 0
0.00 0.00 0.00 17.6759 -71.0696 -7.7567 0.0000 0.0000 0.0000 -21.8494 -5.9999 -23.3702 1.4135 7.5194 21.2635 0.2210 17.6312 -26.8152 0.4137 4.1289 11.4397 0.0000 0.0000 0.0000 12.4350 7.1838 -1.2293 -0.6333 -5.0918 14.1707 -0.7024 -15.4421 -27.9141 -0.0093 -0.6213 1.7073 -10.8299 0.6688 2.5209 -3.0150 0.2100 -2.5880 2.8962 0.3409 -4.1842 4.7760 4.3625 -6.8758 -4.2347 5.6592 5.1404 -1.9500 2.7554 3.1754 0.0000 -0.0000 0.0000 -78.2738 -0.5161 17.8762 17.2201 -27.1471 -4.1873 -0.0000 0.0000 -16.0874 14.4830 -20.2805 -5.1161 -7.1250 0.0000 -0.0000 -8.9542 9.2935 7.4851 0.0000 -0.0000 0.0000 81.7399 -11.5266 46.8951 -28.7312 39.7807 -10.5883 0.0000 -0.0000 -7.4265 -19.1853 -30.0597 9.8867 7.1250 -0.0000 -0.0000 14.1811 -60.9208 -5.5656
0.00 0.00 0.00 1.6399 -71.5864 7.1993 0.0000 0.0000 0.0000 -7.4283 -16.4572 -22.2894 1.1594 6.8358 19.2299 2.7547 18.8543 -42.3037 1.1661 6.8551 19.2867 0.0000 0.0000 0.0000 23.7597 7.5457 -7.9609 -0.8436 -5.8584 16.3742 -0.1695 -15.1243 -23.1467 -0.0237 -0.9940 2.7322 -3.7128 0.9278 3.0717 0.8740 1.0801 -2.4603 2.9140 0.6615 -4.3553 3.8644 3.7044 -8.9235 -3.5185 4.7335 4.6203 -1.5720 2.2831 3.2820 -0.0000 -0.0000 0.0000 -81.9960 4.8141 18.5462 19.6182 -30.1796 -5.3381 -0.0000 0.0000 -17.0401 13.1362 -19.3498 -4.4216 -7.1250 0.0000 -0.0000 -9.7946 10.3754 7.9912 -0.0000 -0.0000 0.0000 80.5850 -11.2253 38.5050 -20.2953 30.9964 -5.6826 0.0000 -0.0000 -6.3494 -18.0498 -28.6009 8.8667 7.1250 -0.0000 -0.0000 14.4567 -59.2259 -5.0903
0.00 0.00 0.00 6.3175 -64.0165 4.8640 0.0000 0.0000 0.0000 -12.4825 -9.7063 -26.3381 1.2790 7.1670 20.2112 -0.0344 11.3624 -15.6710 0.1258 -2.2863 -6.2975 0.0000 0.0000 0.0000 22.2141 6.1175 -9.5587 -1.2400 -7.0611 19.8966 -1.7694 -12.4777 -32.2652 -1.4923 -7.7170 21.8577 -3.1543 0.5194 3.1724 -0.0982 0.5639 -0.4650 1.6389 0.3208 -2.2868 5.5836 3.8793 -1.8985 -7.3298 5.4040 6.8164 -3.2479 2.6029 2.9589 0.0000 -0.0000 0.0000 -82.4283 17.2928 6.6314 12.9831 -21.2625 -2.4472 -0.0000 0.0000 -9.3242 6.4905 -18.1239 -2.0268 -7.1250 0.0000 -0.0000 -14.0924 12.1481 11.1624 0.0000 -0.0000 0.0000 79.3444 -14.4498 32.2372 -19.0463 29.4762 -5.0536 0.0000 -0.0000 -6.7044 -19.0969 -29.2105 9.5902 7.1250 -0.0000 -0.0000 13.7112 -60.0675 -5.0980
0.00 0.00 0.00 7.8471 -59.3822 0.9822 0.0000 0.0000 0.0000 -19.7844 -7.9136 -24.4627 2.4266 9.7031 28.0207 0.4137 3.7273 -14.0958 0.1116 -2.1544 -5.9324 0.0000 0.0000 0.0000 14.3050 -3.8082 -15.2951 -4.0550 -12.2333 36.5622 -0.6482 -8.9252 -20.9721 -0.6073 4.9882 -13.8750 -6.0490 1.5269 3.2148 -1.1309 1.7177 -1.2793 2.1150 0.9622 -3.2742 3.3425 1.6981 -3.1269 -4.4379 2.2218 1.2889 -1.9234 1.0688 1.0303 -0.0000 0.0000 0.0000 -77.0985 -0.4442 -2.5417 7.3588 -12.5082 -0.8075 -0.0000 -0.0000 10.0387 12.6820 -16.2870 -3.6111 -7.1250 0.0000 -0.0000 -10.0590 13.4920 7.5543 -0.0000 0.0000 0.0000 84.6256 -3.9927 27.0508 -9.0415 15.2266 -1.2110 0.0000 0.0000 8.3924 -14.1300 -29.4607 7.0580 7.1250 -0.0000 -0.0000 19.2004 -59.1580 -6.7975
0.00 0.00 0.00 5.5763 -59.2279 0.5873 0.0000 0.0000 0.0000 -19.8491 -6.5121 -17.1141 1.9788 8.8218 25.2395 0.6083 3.8710 -16.6491 0.0902 -1.9376 -5.3332 0.0000 0.0000 0.0000 7.6951 11.2466 -6.6319 -1.2929 -7.2045 20.3226 0.1740 -15.1213 -19.5296 -0.0233 -0.9849 2.7073 -6.2401 1.3703 1.2003 -1.5111 1.5349 -3.2556 1.8533 0.9232 -4.1750 3.3574 1.6456 -5.5765 -1.5498 2.0075 2.0667 -0.9958 0.9961 1.6489 -0.0000 -0.0000 0.0000 -76.9558 -34.0969 31.9757 29.5865 -40.5363 -11.1399 -0.0000 0.0000 -26.9698 9.0611 -9.8333 -1.5601 -7.1250 0.0000 -0.0000 -12.7331 20.1362 7.7631 -0.0000 -0.0000 0.0000 78.0471 28.4563 54.1589 -41.2192 48.7758 -19.3513 0.0000 -0.0000 -20.6601 -19.3531 -32.0841 10.5678 7.1250 -0.0000 -0.0000 15.5009 -62.9287 -6.8335
0.00 0.00 0.00 7.7715 -59.2054 -2.5570 0.0000 0.0000 0.0000 -19.9915 -6.1742 -14.6287 1.9365 8.7325 24.9619 0.7570 2.6823 -17.6188 0.0470 1.3991 3.8477 0.0000 0.0000 0.0000 7.6403 8.9444 -5.8493 -1.4117 -7.5149 21.2500 0.0094 -13.3748 -18.8987 -0.4028 4.0744 -11.2860 -7.1392 1.2287 0.9637 -2.0664 1.3130 -3.1644 1.7966 0.8184 -3.9433 3.2214 1.4575 -6.7643 -1.0641 1.7094 3.5285 -0.8259 0.8654 2.3266 0.0000 -0.0000 0.0000 -72.5208 -39.2075 35.0496 70.6882 -58.5428 -43.3573 -0.0000 0.0000 -35.4736 23.4287 -18.9905 -8.0265 -7.1250 0.0000 -0.0000 -3.1007 9.4447 2.5537 0.0000 -0.0000 0.0000 75.0591 37.1544 48.6536 -65.9342 57.6943 -39.3197 0.0000 -0.0000 -18.8858 -28.0787 -28.2969 14.1919 7.1250 -0.0000 -0.0000 2.9647 -61.3470 -1.1806
0.00 0.00 0.00 8.0115 -59.1553 -2.6812 0.0000 0.0000 0.0000 -19.5864 -6.6257 -14.8972 2.0552 8.9801 25.7332 0.7629 2.8532 -17.7720 0.0049 -0.4525 -1.2434 0.0000 0.0000 0.0000 8.2672 8.2627 -5.8921 -1.3749 -7.4204 20.9669 0.1837 -14.5102 -18.4438 -1.1002 6.6650 -18.7266 -7.4142 1.2389 0.6558 -1.9697 1.3454 -3.2466 2.0530 0.8438 -3.8690 3.4029 1.2536 -6.6696 -1.7120 1.4575 3.3337 -1.0763 0.7224 2.2501 -0.0000 0.0000 0.0000 -71.5141 -41.0985 35.2210 90.6200 -59.9985 -60.5369 -0.0000 0.0000 -36.4719 25.2117 -21.9041 -9.9618 -7.1250 0.0000 -0.0000 -2.2559 6.0343 2.0078 -0.0000 0.0000 0.0000 73.3770 39.2124 46.5234 -76.7911 59.3304 -48.5864 0.0000 -0.0000 -20.0986 -30.4825 -26.7489 14.8386 7.1250 -0.0000 -0.0000 -0.5109 -60.3005 0.1907
0.00 0.00 0.00 7.6528 -59.4402 -2.4710 0.0000 0.0000 0.0000 -18.9166 -6.2421 -14.5539 2.0484 8.9663 25.6898 0.8320 2.3960 -18.2559 0.0045 0.4310 1.1842 0.0000 0.0000 0.0000 9.0849 9.4531 -4.7919 -1.3557 -7.3704 20.8175 -0.1751 -13.5365 -21.1698 -0.1976 2.8628 -7.8970 -7.3077 1.1891 0.2210 -1.8037 1.3297 -3.2472 2.1763 0.8291 -3.6220 3.5385 1.5360 -7.4699 -1.8497 1.8086 4.4205 -1.1320 0.8982 2.7781 0.0000 -0.0000 0.0000 -70.2485 -42.7543 34.7152 108.7892 -58.6231 -76.1967 -0.0000 0.0000 -34.5431 28.3710 -23.3648 -12.0886 -7.1250 0.0000 -0.0000 -0.4809 3.8303 0.4477 0.0000 -0.0000 0.0000 72.0417 41.2380 44.6661 -87.2975 59.9724 -57.6598 0.0000 -0.0000 -20.7216 -30.9228 -25.8271 14.6263 7.1250 -0.0000 -0.0000 -1.3242 -59.4066 0.4660
0.00 0.00 0.00 7.1029 -59.4127 -1.8701 0.0000 0.0000 0.0000 -18.1815 -6.2619 -14.2600 1.9808 8.8259 25.2523 0.7951 2.5733 -17.9644 0.0095 -0.6304 -1.7322 0.0000 0.0000 0.0000 9.9755 9.5770 -4.5286 -1.3280 -7.2978 20.6007 -0.4429 -12.9275 -23.0505 -0.0005 0.1500 -0.4121 -6.7051 0.8019 0.4485 -1.7710 0.7838 -3.6352 1.8880 0.5599 -4.0928 3.3036 1.9112 -7.0814 -1.4062 2.3175 4.0722 -0.9231 1.1615 2.5897 0.0000 -0.0000 0.0000 -68.6978 -43.5757 33.0310 124.2553 -55.0651 -89.1744 -0.0000 0.0000 -34.5594 29.4156 -24.3916 -13.1075 -7.1250 0.0000 -0.0000 0.0039 2.4804 -0.0038 0.0000 -0.0000 0.0000 72.8209 42.4210 44.2519 -98.8943 59.6990 -67.6949 0.0000 -0.0000 -21.2462 -30.5138 -25.2789 14.1266 7.1250 -0.0000 -0.0000 -1.0066 -58.7070 0.3373
0.00 0.00 0.00 7.5319 -59.2497 -1.9196 0.0000 0.0000 0.0000 -17.7088 -5.9864 -14.2587 1.9104 8.6769 24.7898 0.7557 2.8109 -17.6731 0.1315 -2.3372 -6.4384 0.0000 0.0000 0.0000 10.8104 9.4491 -4.8335 -1.3575 -7.3750 20.8314 0.1302 -16.0699 -21.4743 -0.7615 5.5727 -15.5496 -6.8626 0.9333 -0.4229 -1.9127 1.0382 -3.4342 1.8366 0.6651 -3.4111 3.1907 1.8411 -7.3919 -1.0260 2.2012 4.0608 -0.7840 1.1132 2.6320 -0.0000 -0.0000 0.0000 -68.4208 -46.4052 33.1552 140.1456 -47.9834 -101.6690 -0.0000 0.0000 -36.4538 30.6866 -26.3248 -14.7440 -7.1250 0.0000 -0.0000 0.4476 0.0674 -0.4471 -0.0000 -0.0000 0.0000 71.4603 44.2203 40.3524 -113.9260 57.7224 -80.5621 0.0000 -0.0000 -23.3220 -28.4997 -24.5437 12.7095 7.1250 -0.0000 -0.0000 1.0668 -57.4337 -0.3248
0.00 0.00 0.00 7.1192 -58.7565 -1.5097 0.0000 0.0000 0.0000 -16.8440 -6.9994 -13.8003 1.9260 8.7103 24.8933 0.7828 3.3727 -18.2658 0.3487 -3.7944 -10.4989 0.0000 0.0000 0.0000 11.8552 8.9321 -4.0893 -1.2263 -7.0235 19.7850 0.0541 -16.2620 -22.5369 -0.5221 4.6306 -12.8579 -6.1876 0.7059 -0.8283 -1.7320 0.7919 -3.3556 1.6620 0.5177 -3.0661 2.8760 1.9265 -6.8875 -1.0987 2.3660 3.8333 -0.7482 1.1877 2.4610 -0.0000 -0.0000 0.0000 -68.2270 -47.5776 32.8335 152.0551 -39.0654 -109.9111 -0.0000 0.0000 -39.5331 25.6664 -27.0564 -12.3301 -7.1250 0.0000 -0.0000 -2.6462 0.4682 2.6273 -0.0000 -0.0000 0.0000 70.6105 44.6384 38.8332 -128.5630 53.5589 -92.6740 0.0000 -0.0000 -23.3653 -26.6610 -24.1467 11.6068 7.1250 -0.0000 -0.0000 2.9713 -56.5951 -0.8451
